<svg width="161" height="44" viewBox="0 0 161 44" fill="none" xmlns="http://www.w3.org/2000/svg">
<path d="M6.08 38.56H20.72V43H0.62V1.18H6.08V38.56ZM45.4784 43.42C41.5984 43.42 38.0584 42.52 34.8584 40.72C31.6584 38.88 29.1184 36.34 27.2384 33.1C25.3984 29.82 24.4784 26.14 24.4784 22.06C24.4784 17.98 25.3984 14.32 27.2384 11.08C29.1184 7.8 31.6584 5.26 34.8584 3.46C38.0584 1.62 41.5984 0.699997 45.4784 0.699997C49.3984 0.699997 52.9584 1.62 56.1584 3.46C59.3584 5.26 61.8784 7.78 63.7184 11.02C65.5584 14.26 66.4784 17.94 66.4784 22.06C66.4784 26.18 65.5584 29.86 63.7184 33.1C61.8784 36.34 59.3584 38.88 56.1584 40.72C52.9584 42.52 49.3984 43.42 45.4784 43.42ZM45.4784 38.68C48.3984 38.68 51.0184 38 53.3384 36.64C55.6984 35.28 57.5384 33.34 58.8584 30.82C60.2184 28.3 60.8984 25.38 60.8984 22.06C60.8984 18.7 60.2184 15.78 58.8584 13.3C57.5384 10.78 55.7184 8.84 53.3984 7.48C51.0784 6.12 48.4384 5.44 45.4784 5.44C42.5184 5.44 39.8784 6.12 37.5584 7.48C35.2384 8.84 33.3984 10.78 32.0384 13.3C30.7184 15.78 30.0584 18.7 30.0584 22.06C30.0584 25.38 30.7184 28.3 32.0384 30.82C33.3984 33.34 35.2384 35.28 37.5584 36.64C39.9184 38 42.5584 38.68 45.4784 38.68ZM105.366 13.3C104.206 10.86 102.526 8.98 100.326 7.66C98.1264 6.3 95.5664 5.62 92.6464 5.62C89.7264 5.62 87.0864 6.3 84.7264 7.66C82.4064 8.98 80.5664 10.9 79.2064 13.42C77.8864 15.9 77.2264 18.78 77.2264 22.06C77.2264 25.34 77.8864 28.22 79.2064 30.7C80.5664 33.18 82.4064 35.1 84.7264 36.46C87.0864 37.78 89.7264 38.44 92.6464 38.44C96.7264 38.44 100.086 37.22 102.726 34.78C105.366 32.34 106.906 29.04 107.346 24.88H90.6664V20.44H113.166V24.64C112.846 28.08 111.766 31.24 109.926 34.12C108.086 36.96 105.666 39.22 102.666 40.9C99.6664 42.54 96.3264 43.36 92.6464 43.36C88.7664 43.36 85.2264 42.46 82.0264 40.66C78.8264 38.82 76.2864 36.28 74.4064 33.04C72.5664 29.8 71.6464 26.14 71.6464 22.06C71.6464 17.98 72.5664 14.32 74.4064 11.08C76.2864 7.8 78.8264 5.26 82.0264 3.46C85.2264 1.62 88.7664 0.699997 92.6464 0.699997C97.0864 0.699997 101.006 1.8 104.406 4C107.846 6.2 110.346 9.3 111.906 13.3H105.366ZM139.346 43.42C135.466 43.42 131.926 42.52 128.726 40.72C125.526 38.88 122.986 36.34 121.106 33.1C119.266 29.82 118.346 26.14 118.346 22.06C118.346 17.98 119.266 14.32 121.106 11.08C122.986 7.8 125.526 5.26 128.726 3.46C131.926 1.62 135.466 0.699997 139.346 0.699997C143.266 0.699997 146.826 1.62 150.026 3.46C153.226 5.26 155.746 7.78 157.586 11.02C159.426 14.26 160.346 17.94 160.346 22.06C160.346 26.18 159.426 29.86 157.586 33.1C155.746 36.34 153.226 38.88 150.026 40.72C146.826 42.52 143.266 43.42 139.346 43.42ZM139.346 38.68C142.266 38.68 144.886 38 147.206 36.64C149.566 35.28 151.406 33.34 152.726 30.82C154.086 28.3 154.766 25.38 154.766 22.06C154.766 18.7 154.086 15.78 152.726 13.3C151.406 10.78 149.586 8.84 147.266 7.48C144.946 6.12 142.306 5.44 139.346 5.44C136.386 5.44 133.746 6.12 131.426 7.48C129.106 8.84 127.266 10.78 125.906 13.3C124.586 15.78 123.926 18.7 123.926 22.06C123.926 25.38 124.586 28.3 125.906 30.82C127.266 33.34 129.106 35.28 131.426 36.64C133.786 38 136.426 38.68 139.346 38.68Z" fill="white"/>
</svg>
